<svg width="120" height="120" viewBox="0 0 120 120" fill="none" xmlns="http://www.w3.org/2000/svg">
  <rect width="120" height="120" rx="28" fill="#0f2a1c"/>
  <rect x="12" y="12" width="96" height="96" rx="20" fill="#123d27"/>
  <path d="M38 60c0-12.15 9.85-22 22-22s22 9.85 22 22-9.85 22-22 22-22-9.85-22-22Z" fill="#1f7c45"/>
  <path d="M60 38c-12.15 0-22 9.85-22 22 0 5.12 1.76 9.83 4.7 13.55L73.55 42.7C69.83 39.76 65.12 38 60 38Z" fill="#3dd68c"/>
  <path d="M44 60h32" stroke="#f2f9f5" stroke-width="6" stroke-linecap="round"/>
  <path d="M60 44v32" stroke="#f2f9f5" stroke-width="6" stroke-linecap="round"/>
  <path d="M22 60h12" stroke="#3dd68c" stroke-width="4" stroke-linecap="round"/>
  <path d="M86 60h12" stroke="#3dd68c" stroke-width="4" stroke-linecap="round"/>
  <path d="M60 22v12" stroke="#3dd68c" stroke-width="4" stroke-linecap="round"/>
  <path d="M60 86v12" stroke="#3dd68c" stroke-width="4" stroke-linecap="round"/>
  <circle cx="60" cy="60" r="6" fill="#0f2a1c"/>
</svg>
