<svg width="180" height="48" viewBox="0 0 180 48" fill="none" xmlns="http://www.w3.org/2000/svg">
  <rect x="2" y="6" width="44" height="36" rx="12" fill="#0B291C" stroke="#3CE37B" stroke-width="2.4"/>
  <path d="M18.6 18.4h5.4c3 0 4.6 1.6 4.6 4.1 0 2.5-1.6 4.1-4.6 4.1h-3.2v5h-2.2V18.4Zm5.1 6.4c1.8 0 2.7-.9 2.7-2.3 0-1.4-.9-2.3-2.7-2.3h-2.9v4.6h2.9Z" fill="#ECFDF3"/>
  <path d="M10.8 24.6c0-6.1 4.9-11 11-11s11 4.9 11 11-4.9 11-11 11-11-4.9-11-11Zm3.2 0c0 4.3 3.5 7.8 7.8 7.8s7.8-3.5 7.8-7.8-3.5-7.8-7.8-7.8-7.8 3.5-7.8 7.8Z" fill="#3CE37B"/>
  <path d="M59.5 32.9c-3.9 0-6.6-2.6-6.6-6.6v-.1c0-3.6 2.5-6.7 6.2-6.7 4.1 0 6.1 3.1 6.1 6.8 0 .2 0 .5-.1.8H55.3c.3 2.6 1.9 4 4.3 4 1.7 0 2.9-.6 4.1-1.7l1.3 1.3c-1.4 1.5-3 2.6-5.5 2.6Zm3.8-7.5c-.2-2.3-1.6-4-3.7-4-2.1 0-3.5 1.6-3.8 4h7.5Z" fill="#ECFDF3"/>
  <path d="M70 19.7h2.1v2.2c.9-1.3 2.1-2.5 4.3-2.5 2 0 3.3 1 4 2.4 1.1-1.4 2.6-2.4 4.7-2.4 3 0 4.9 2 4.9 5.3v8.1h-2.1v-7.6c0-2.4-1.1-3.8-3.2-3.8-1.9 0-3.4 1.5-3.4 3.9v7.5h-2.1v-7.7c0-2.3-1.1-3.8-3.1-3.8-2 0-3.4 1.7-3.4 4v7.5H70V19.7Z" fill="#ECFDF3"/>
  <path d="M98.9 14.5h2.2v5.5h4.9v1.9h-4.9v7.8c0 1.9.9 2.6 2.4 2.6 1 0 1.8-.2 2.6-.7v1.9c-.9.5-1.9.8-3.3.8-2.5 0-3.9-1.3-3.9-3.9v-8.6h-2.4v-1.9h2.4v-5.4Z" fill="#3CE37B"/>
  <path d="M110.3 26.1v-.1c0-3.8 2.7-6.7 6.3-6.7 3.9 0 6.1 3 6.1 6.9 0 .2 0 .5-.1.8h-10.3c.3 2.5 2.2 4 4.5 4 1.7 0 2.9-.5 4.1-1.6l1.2 1.2c-1.4 1.5-3.1 2.5-5.4 2.5-3.7 0-6.4-2.8-6.4-6.9Zm10.4-.8c-.2-2.4-1.5-4-4-4-2.2 0-3.9 1.6-4.2 4h8.2Z" fill="#3CE37B"/>
  <path d="M125.9 26.1v-.1c0-3.8 2.9-6.7 6.7-6.7 2.5 0 4.1.9 5.3 2.3l-1.4 1.3c-.9-1-2-1.8-3.9-1.8-2.6 0-4.6 2.3-4.6 5v.1c0 2.9 1.9 5 4.7 5 1.6 0 3-.7 3.9-1.8l1.3 1.2c-1.2 1.5-2.9 2.5-5.3 2.5-4 .1-6.7-2.7-6.7-6.5Z" fill="#ECFDF3"/>
  <path d="M142.1 14.3h2.1v18.3h-2.1V14.3Z" fill="#3CE37B"/>
  <path d="M147.7 26.1v-.1c0-3.8 2.9-6.7 6.7-6.7 2.5 0 4.1.9 5.3 2.3l-1.4 1.3c-.9-1-2-1.8-3.9-1.8-2.6 0-4.6 2.3-4.6 5v.1c0 2.9 1.9 5 4.7 5 1.6 0 3-.7 3.9-1.8l1.3 1.2c-1.2 1.5-2.9 2.5-5.3 2.5-4 .1-6.7-2.7-6.7-6.5Z" fill="#ECFDF3"/>
  <path d="M164 14.3h2.1v7c1-1.4 2.4-2.6 4.6-2.6 3.1 0 6.1 2.5 6.1 6.6v.1c0 4.1-3 6.6-6.1 6.6-2.2 0-3.7-1.2-4.6-2.5v2.3H164V14.3Zm10.6 11.1v-.1c0-2.9-2-4.7-4.2-4.7-2.1 0-4.3 1.9-4.3 4.7v.1c0 2.9 2.2 4.7 4.3 4.7 2.1 0 4.2-1.7 4.2-4.7Z" fill="#ECFDF3"/>
</svg>
