<svg width="200" height="48" viewBox="0 0 200 48" fill="none" xmlns="http://www.w3.org/2000/svg">
  <!-- GPU Chip Icon with more detail -->
  <g id="gpu-chip">
    <!-- Outer chip glow -->
    <rect x="2" y="10" width="26" height="26" rx="3" fill="#76B900" opacity="0.15"/>
    
    <!-- Chip base with gradient -->
    <defs>
      <linearGradient id="chipGrad" x1="0%" y1="0%" x2="100%" y2="100%">
        <stop offset="0%" style="stop-color:#0d1f19;stop-opacity:1" />
        <stop offset="100%" style="stop-color:#0a1612;stop-opacity:1" />
      </linearGradient>
    </defs>
    <rect x="4" y="12" width="22" height="22" rx="2" fill="url(#chipGrad)" stroke="#76B900" stroke-width="2"/>
    
    <!-- Circuit pattern -->
    <line x1="9" y1="18" x2="21" y2="18" stroke="#76B900" stroke-width="1.5" opacity="0.9"/>
    <line x1="9" y1="23" x2="21" y2="23" stroke="#10b981" stroke-width="1.5" opacity="0.9"/>
    <line x1="9" y1="28" x2="21" y2="28" stroke="#76B900" stroke-width="1.5" opacity="0.9"/>
    
    <!-- Vertical lines -->
    <line x1="12" y1="15" x2="12" y2="31" stroke="#10b981" stroke-width="1" opacity="0.6"/>
    <line x1="18" y1="15" x2="18" y2="31" stroke="#76B900" stroke-width="1" opacity="0.6"/>
    
    <!-- Medical cross integrated in center -->
    <circle cx="15" cy="23" r="6" fill="#0a1612" stroke="#76B900" stroke-width="1.5"/>
    <path d="M15 19.5 L15 26.5 M11.5 23 L18.5 23" stroke="#76B900" stroke-width="2.5" stroke-linecap="round"/>
    
    <!-- Chip pins (left) -->
    <line x1="4" y1="15" x2="0.5" y2="15" stroke="#76B900" stroke-width="1.5"/>
    <line x1="4" y1="19" x2="0.5" y2="19" stroke="#10b981" stroke-width="1.5"/>
    <line x1="4" y1="23" x2="0.5" y2="23" stroke="#76B900" stroke-width="1.5"/>
    <line x1="4" y1="27" x2="0.5" y2="27" stroke="#10b981" stroke-width="1.5"/>
    <line x1="4" y1="31" x2="0.5" y2="31" stroke="#76B900" stroke-width="1.5"/>
    
    <!-- Chip pins (right) -->
    <line x1="26" y1="15" x2="29.5" y2="15" stroke="#76B900" stroke-width="1.5"/>
    <line x1="26" y1="19" x2="29.5" y2="19" stroke="#10b981" stroke-width="1.5"/>
    <line x1="26" y1="23" x2="29.5" y2="23" stroke="#76B900" stroke-width="1.5"/>
    <line x1="26" y1="27" x2="29.5" y2="27" stroke="#10b981" stroke-width="1.5"/>
    <line x1="26" y1="31" x2="29.5" y2="31" stroke="#76B900" stroke-width="1.5"/>
  </g>
  
  <!-- Text -->
  <g id="text">
    <!-- GPU in NVIDIA green -->
    <text x="38" y="26" font-family="Inter, system-ui, sans-serif" font-size="20" font-weight="800" fill="#76B900" letter-spacing="-0.5">
      GPU
    </text>
    
    <!-- Doctor in accent teal -->
    <text x="38" y="26" font-family="Inter, system-ui, sans-serif" font-size="20" font-weight="800" fill="#10b981" letter-spacing="-0.5">
      <tspan x="84" y="26">Doctor</tspan>
    </text>
    
    <!-- Subtitle with spacing -->
    <text x="38" y="38" font-family="Inter, system-ui, sans-serif" font-size="7.5" font-weight="600" fill="#6ee7b7" letter-spacing="1.2">
      PRECISION REPAIR LAB
    </text>
  </g>
</svg>
